<svg width="64" height="64" viewBox="0 0 64 64" fill="none" xmlns="http://www.w3.org/2000/svg">
  <rect width="64" height="64" rx="18" fill="#2563eb"/>
  <g transform="translate(32 32) scale(1.1) translate(-32 -32)">
    <path d="M20 13.5h18.9l8.1 8.25V50.5H20v-37Z" stroke="white" stroke-width="4.2" stroke-linejoin="round"/>
    <path d="M38.7 13.8v8.5h8" stroke="white" stroke-width="4.2" stroke-linejoin="round"/>
    <path d="M27.4 30.3h13.2M27.4 38h10.4" stroke="white" stroke-width="4" stroke-linecap="round"/>
    <path d="M14.5 37.4c5.1 0 9.2 4.1 9.2 9.2M14.5 43.4c1.8 0 3.2 1.4 3.2 3.2" stroke="white" stroke-width="3.7" stroke-linecap="round"/>
    <circle cx="14.5" cy="50.2" r="2.3" fill="white"/>
    <path d="M51.2 32.4l1.3 2.4 2.4 1.3-2.4 1.3-1.3 2.4-1.3-2.4-2.4-1.3 2.4-1.3 1.3-2.4Z" fill="white"/>
  </g>
</svg>
